<?xml version="1.0" standalone="no"?>
<!DOCTYPE svg PUBLIC "-//W3C//DTD SVG 20010904//EN"
 "http://www.w3.org/TR/2001/REC-SVG-20010904/DTD/svg10.dtd">
<svg version="1.0" xmlns="http://www.w3.org/2000/svg"
 width="300.000000pt" height="300.000000pt" viewBox="0 0 300.000000 300.000000"
 preserveAspectRatio="xMidYMid meet">
<metadata>
Created by potrace 1.14, written by Peter Selinger 2001-2017
</metadata>
<g transform="translate(0.000000,300.000000) scale(0.100000,-0.100000)"
fill="#000000" stroke="none">
<path d="M0 1500 l0 -1500 1500 0 1500 0 0 1500 0 1500 -1500 0 -1500 0 0
-1500z m2335 1094 c0 -38 5 -50 26 -66 14 -11 44 -22 67 -25 39 -5 45 -3 77
31 38 40 52 39 89 -11 17 -24 18 -26 2 -35 -44 -25 -58 -52 -53 -102 5 -59 42
-96 95 -96 l32 0 0 -55 c0 -30 -3 -55 -7 -55 -5 0 -34 29 -66 65 -51 57 -117
105 -145 105 -5 0 4 -37 21 -82 23 -63 30 -102 31 -160 1 -60 4 -74 14 -66 8
7 12 7 12 -2 0 -7 -8 -19 -17 -26 -15 -11 -13 -12 14 -2 45 17 54 1 18 -29
l-30 -26 28 17 c37 23 81 14 74 -14 -3 -11 -1 -17 4 -14 6 3 17 3 26 0 13 -5
13 -9 2 -24 -13 -15 -12 -16 4 -3 16 12 21 11 50 -15 17 -16 34 -30 37 -32 2
-2 -6 -12 -20 -23 -24 -20 -24 -20 -2 -9 51 25 32 -21 -24 -59 -19 -13 -34
-29 -34 -35 0 -13 -98 -110 -139 -138 -33 -23 -47 -22 -69 0 -10 10 -27 22
-36 25 -11 5 -16 13 -12 23 3 9 2 12 -5 9 -14 -9 -81 44 -75 60 3 8 -2 11 -15
8 -33 -9 -21 15 21 43 22 15 40 29 40 31 0 5 -6 2 -61 -33 l-37 -23 -18 21
c-19 20 -19 21 5 37 53 35 63 50 15 21 -28 -16 -54 -30 -58 -30 -16 0 -3 31
22 50 l27 22 -36 -21 c-42 -25 -63 -27 -56 -7 4 10 1 13 -7 10 -8 -3 -29 8
-47 24 -19 16 -44 37 -56 47 -12 10 -20 22 -17 27 3 5 0 7 -8 6 -7 -2 -12 5
-12 14 1 11 -4 14 -13 11 -8 -3 -18 -2 -22 3 -3 5 -31 28 -61 50 -77 58 -100
79 -100 93 0 7 -4 10 -9 6 -19 -11 -23 17 -5 30 50 36 54 44 12 20 -47 -26
-47 -26 -68 -7 -24 22 -19 45 16 60 13 7 24 17 24 24 0 7 9 19 20 26 11 7 20
18 20 25 0 6 14 21 30 32 17 11 36 29 43 41 104 182 203 252 357 253 l65 1 0
-46z m-1164 -405 c20 -10 20 -11 2 -31 -18 -21 -18 -21 8 -5 21 14 30 15 52 4
15 -6 27 -18 27 -25 0 -7 4 -11 9 -7 6 3 25 -3 44 -14 19 -10 45 -25 58 -33
13 -7 25 -13 25 -13 1 0 5 -10 8 -22 6 -18 0 -27 -33 -48 -23 -16 -38 -32 -35
-40 6 -15 -56 -101 -92 -128 -13 -10 -24 -24 -24 -32 0 -7 -54 -46 -121 -86
-186 -114 -189 -121 -6 -19 44 25 57 28 57 16 0 -9 -40 -39 -95 -72 -102 -60
-132 -87 -39 -34 70 40 94 28 37 -19 -20 -17 -41 -31 -45 -31 -4 0 -5 -7 -2
-14 6 -16 -51 -106 -66 -106 -6 0 -10 -9 -10 -20 0 -11 -11 -27 -24 -35 -16
-10 -22 -22 -19 -34 3 -13 -5 -26 -26 -42 -16 -12 -28 -26 -25 -31 3 -5 -1
-17 -9 -26 -7 -9 -17 -25 -20 -34 -3 -10 -25 -31 -48 -48 -25 -18 -35 -30 -26
-30 27 0 20 -16 -20 -49 l-37 -30 28 -11 c15 -5 35 -6 44 -2 22 11 82 15 82 5
0 -3 -8 -15 -17 -26 -18 -19 -17 -20 7 -7 14 7 42 24 62 36 20 13 52 23 70 23
18 0 42 1 53 3 12 2 19 -2 17 -10 -1 -8 11 -6 38 8 34 17 65 21 210 26 93 2
170 1 170 -3 0 -5 -25 -24 -55 -42 -64 -39 -75 -54 -12 -18 23 13 68 39 99 57
32 17 60 35 62 39 3 4 8 33 11 66 5 36 14 65 24 72 13 11 13 13 1 11 -12 -2
-15 8 -13 52 3 105 6 131 16 137 5 3 4 9 -3 13 -8 5 -9 13 -4 21 4 8 7 26 5
41 -2 27 28 56 43 40 4 -4 15 -7 24 -7 9 0 16 -6 14 -13 -2 -10 2 -10 17 -2
28 14 44 12 37 -5 -5 -14 -2 -14 23 -1 16 9 31 12 35 9 3 -4 30 -7 59 -7 65
-1 89 -18 87 -60 -1 -17 -1 -33 0 -36 6 -17 29 -164 30 -187 0 -7 -31 -31 -70
-54 -38 -23 -70 -43 -70 -45 0 -3 31 13 69 33 38 21 71 36 74 33 3 -3 7 -16 9
-30 2 -20 -6 -30 -45 -56 -64 -42 -73 -53 -16 -20 25 14 51 26 57 26 29 0 6
-23 -73 -70 -47 -28 -85 -54 -85 -56 0 -3 15 3 33 14 119 74 146 84 145 55 0
-10 3 -34 6 -53 17 -95 16 -108 -12 -130 -20 -16 -21 -18 -5 -11 29 14 43 14
43 -1 0 -7 -34 -35 -75 -62 -41 -27 -81 -56 -88 -65 -6 -9 4 -4 23 10 48 35
124 79 138 79 7 0 10 -12 8 -30 -2 -16 1 -30 5 -30 19 0 8 -29 -18 -49 l-28
-21 28 11 c33 15 45 6 26 -18 -9 -11 -10 -14 -1 -9 11 7 16 -10 15 -51 -1 -7
3 -13 8 -13 23 0 4 -32 -36 -61 -57 -41 -58 -47 -2 -14 24 14 47 25 50 25 13
0 7 -22 -11 -38 -10 -10 -12 -13 -5 -8 27 18 41 -29 17 -56 -14 -15 -14 -16 4
-11 15 3 21 -2 26 -23 6 -21 1 -33 -21 -57 -24 -25 -25 -28 -6 -18 32 16 40
14 46 -16 6 -31 -17 -55 -44 -47 -9 2 -58 -20 -110 -51 -51 -30 -96 -55 -100
-55 -4 0 -10 8 -14 18 -4 12 3 25 27 46 l33 29 -38 -21 c-21 -12 -40 -22 -42
-22 -3 0 -11 12 -19 28 -14 25 -13 28 12 50 25 22 25 22 2 8 -32 -21 -37 -20
-50 4 -9 17 -7 24 7 38 10 9 14 14 9 10 -12 -10 -46 -10 -46 -1 0 4 10 18 23
31 l22 25 -22 -12 c-12 -6 -26 -11 -31 -11 -10 0 -48 70 -44 83 1 4 -2 7 -8 7
-27 0 -4 29 50 64 33 21 60 40 60 43 0 3 -10 -1 -22 -9 -95 -60 -99 -61 -135
-50 -23 7 -44 7 -60 1 -34 -13 -36 -12 -30 11 5 19 5 19 -34 0 -41 -22 -79
-26 -79 -10 0 6 33 31 73 57 67 43 122 85 67 52 -159 -97 -221 -130 -231 -123
-8 5 -4 13 12 26 13 10 -1 5 -33 -12 -35 -20 -59 -27 -63 -20 -4 6 -12 7 -23
1 -10 -5 -28 -10 -42 -10 -31 -1 -86 -9 -122 -17 -19 -4 -28 -2 -28 6 0 9 -8
7 -26 -5 -18 -11 -29 -14 -36 -7 -7 7 6 21 41 42 28 18 51 34 51 37 0 3 -10
-1 -22 -9 -50 -32 -156 -88 -166 -88 -31 0 -3 24 98 85 60 36 110 69 110 72 0
3 -11 -2 -25 -11 -95 -62 -273 -156 -294 -155 -14 1 -41 -4 -58 -9 -31 -10
-37 -8 -34 11 1 4 -17 -2 -40 -14 -23 -11 -50 -18 -61 -16 -11 3 -32 0 -46 -6
-20 -9 -26 -9 -30 1 -3 10 -9 10 -28 -3 -14 -9 -34 -13 -48 -9 -14 3 -37 -1
-56 -11 -24 -12 -35 -14 -45 -5 -15 12 -55 111 -55 134 0 7 57 48 128 91 179
111 282 177 282 182 0 3 -10 -1 -22 -9 -78 -50 -376 -227 -388 -230 -8 -2 -14
2 -15 7 0 6 -4 16 -9 24 -9 14 -3 21 55 64 17 13 13 12 -12 -2 -49 -28 -56
-27 -68 16 -9 30 -8 40 6 55 16 18 16 18 -1 12 -33 -13 -39 19 -8 44 15 12 20
20 11 17 -23 -9 -32 10 -14 28 8 9 15 20 15 25 0 5 9 17 19 26 11 10 17 24 14
31 -2 8 7 26 21 40 15 15 24 30 21 35 -3 5 3 17 14 27 11 9 18 20 15 24 -7 11
43 89 62 96 11 4 12 8 3 19 -9 11 -4 21 25 48 23 22 31 36 23 40 -8 3 -1 15
20 34 25 21 30 31 21 40 -8 8 -2 16 26 32 41 25 45 30 16 23 -25 -7 -25 7 0
40 11 14 20 29 20 34 0 4 59 43 130 87 72 43 130 80 130 83 0 5 -40 -17 -150
-84 -30 -18 -61 -33 -67 -33 -19 0 -16 18 6 32 10 6 17 17 14 24 -2 7 5 18 17
24 11 6 18 15 15 20 -3 5 10 25 29 44 18 19 32 37 30 39 -3 3 10 17 28 32 18
15 36 36 40 46 4 10 24 31 46 46 21 16 37 33 35 40 -2 6 6 19 19 29 13 11 29
31 37 46 8 15 31 39 53 54 21 15 38 35 38 45 0 10 11 26 25 35 14 9 25 21 25
28 0 10 85 64 103 65 5 1 17 -4 28 -10z"/>
<path d="M2241 2474 c-43 -18 -60 -41 -61 -80 0 -65 104 -110 149 -65 31 31
29 104 -4 136 -28 29 -37 30 -84 9z"/>
<path d="M984 1784 c-18 -14 -18 -15 4 -4 12 6 22 13 22 15 0 8 -5 6 -26 -11z"/>
<path d="M888 1727 c-61 -39 -106 -73 -68 -52 41 23 140 87 140 91 0 6 -2 6
-72 -39z"/>
<path d="M914 1594 c-18 -14 -18 -15 4 -4 12 6 22 13 22 15 0 8 -5 6 -26 -11z"/>
<path d="M924 1554 c-18 -14 -18 -15 4 -4 12 6 22 13 22 15 0 8 -5 6 -26 -11z"/>
<path d="M634 1484 c-18 -14 -18 -15 4 -4 12 6 22 13 22 15 0 8 -5 6 -26 -11z"/>
<path d="M584 1454 c-18 -14 -18 -15 4 -4 12 6 22 13 22 15 0 8 -5 6 -26 -11z"/>
<path d="M1764 1154 c-18 -14 -18 -15 4 -4 12 6 22 13 22 15 0 8 -5 6 -26 -11z"/>
<path d="M1283 989 c-35 -22 -46 -37 -15 -20 22 13 58 40 52 41 -3 0 -20 -10
-37 -21z"/>
<path d="M1214 944 c-18 -14 -18 -15 4 -4 12 6 22 13 22 15 0 8 -5 6 -26 -11z"/>
<path d="M1164 914 c-18 -14 -18 -15 4 -4 12 6 22 13 22 15 0 8 -5 6 -26 -11z"/>
<path d="M694 874 c-18 -14 -18 -15 4 -4 12 6 22 13 22 15 0 8 -5 6 -26 -11z"/>
<path d="M1269 793 c-13 -16 -12 -17 4 -4 9 7 17 15 17 17 0 8 -8 3 -21 -13z"/>
<path d="M1174 734 c-18 -14 -18 -15 4 -4 12 6 22 13 22 15 0 8 -5 6 -26 -11z"/>
<path d="M1104 694 c-18 -14 -18 -15 4 -4 12 6 22 13 22 15 0 8 -5 6 -26 -11z"/>
<path d="M1084 634 c-18 -14 -18 -15 4 -4 12 6 22 13 22 15 0 8 -5 6 -26 -11z"/>
</g>
</svg>
